<?xml version="1.0" encoding="UTF-8"?>
<svg width="120px" height="120px" viewBox="0 0 120 120" version="1.1" xmlns="http://www.w3.org/2000/svg">
  <polygon fill="#005f93" points="40 78 44 81.5 22 102"/>
  <polygon fill="#005f93" points="50 85 57 88 50 95"/>
  <polygon fill="#009992" points="51.5 77.7 61 86 47 79.5"/>
  <polygon fill="#005f93" points="43 70 51.5 77.7 47 79.5 42 75"/>
  <polygon fill="#002c76" points="33 61 43 70 42 75"/>
  <polygon fill="#00808e" points="62 69 71 77 61 86"/>
  <polygon fill="#00bdb0" points="62 69 61 86 51.5 77.7"/>
  <polygon fill="#009992" points="51 59 62 69 51.5 77.7 43 70"/>
  <polygon fill="#005f93" points="33 61 51 59 43 70"/>
  <polygon fill="#009991" points="41 50 51 59 33 61"/>
  <polygon fill="#005f93" points="85 68.2 74 110 71 77"/>
  <polygon fill="#08d2ca" points="62 69 106 55 71 77"/>
  <polygon fill="#00bdb0" points="89 39.45 106 55 62 69"/>
  <polygon fill="#08d2ca" points="77 28.47 89 39.45 62 69 51 59"/>
  <polygon fill="#005f93" points="59 12 77 28.47 51 59"/>
  <polygon fill="#00808e" points="59 12 51 59 41 50"/>
  <polygon fill="#005f93" points="10 49 48.58 34 41 50"/>
  <path fill="#24dde6" d="M85,35.8 L110,27 L106,55 L85,35.8 Z M102,32 L94,41 L105,44 L102,32 Z"/>
  <polygon fill="#00bdb0" points="85 4.5 110 27 85 35.8 81 32.13"/>
  <path fill="#00808e" d="M59,12 L85,4.5 L81,32.13 L59,12 Z M68,12 L73,22 L81,14 L68,12 Z"/>
</svg>
