<?xml version="1.0" encoding="UTF-8"?>
<svg width="120px" height="120px" viewBox="0 0 120 120" version="1.1" xmlns="http://www.w3.org/2000/svg">
  <polygon fill="#1b3500" points="40 96 37 120 34 96"/>
  <polygon fill="#1b3500" points="32 96 29 106 26 96"/>
  <polygon fill="#1b3500" points="48 96 45 106 42 96"/>
  <polygon fill="#122200" points="35 94 25 94 30 86.85"/>
  <polygon fill="#5bb000" points="49 94 39 94 44 86.85"/>
  <polygon fill="#1b3500" points="35 94 21 74 32 74"/>
  <polygon fill="#326100" points="32 74 42 74 39 94 35 94"/>
  <polygon fill="#4a8e00" points="39 94 42 74 53 74"/>
  <polygon fill="#1b3500" points="21 74 6 64 3 82"/>
  <polygon fill="#326100" points="18 54 6 64 21 74"/>
  <polygon fill="#98db4f" points="56 54 68 64 53 74"/>
  <polygon fill="#7cd51c" points="53 74 68 64 71 82"/>
  <polygon fill="#4b8e00" points="31 63 21 74 18 63"/>
  <polygon fill="#336000" points="21 74 31 63 32 74"/>
  <polygon fill="#4a8e00" points="31 63 43 63 42 74 32 74"/>
  <polygon fill="#5cb000" points="43 63 53 74 42 74"/>
  <polygon fill="#407a00" points="53 74 43 63 56 63"/>
  <polygon fill="#407a00" points="18 31 31 63 18 63"/>
  <polygon fill="#326100" points="31 63 18 31 31 31"/>
  <path fill="#68c600" d="M31,63 L31,31 L43,31 L43,63 L31,63 Z M37,47 C39.209139,47 41,45.209139 41,43 C41,40.790861 39.209139,39 37,39 C34.790861,39 33,40.790861 33,43 C33,45.209139 34.790861,47 37,47 Z"/>
  <polygon fill="#5cb000" points="43 63 43 31 56 31"/>
  <polygon fill="#68c600" points="56 31 56 63 43 63"/>
  <polygon fill="#4a8e00" points="37 0 31 31 18 31"/>
  <polygon fill="#5cb000" points="37 0 43 31 31 31"/>
  <polygon fill="#7dd51c" points="37 0 56 31 43 31"/>
  <polygon fill="#02344b" points="95.6666667 64 93.6666667 80 91.6666667 64"/>
  <polygon fill="#02344b" points="90.3333333 64 88.3333333 70.6666667 86.3333333 64"/>
  <polygon fill="#02344b" points="101 64 99 70.6666667 97 64"/>
  <polygon fill="#002231" points="92.3333333 62.6666667 85.6666667 62.6666667 89 57.9"/>
  <polygon fill="#17a8e7" points="101.666667 62.6666667 95 62.6666667 98.3333333 57.9"/>
  <polygon fill="#02344b" points="92.3333333 62.6666667 83 49.3333333 90.3333333 49.3333333"/>
  <polygon fill="#075e84" points="90.3333333 49.3333333 97 49.3333333 95 62.6666667 92.3333333 62.6666667"/>
  <polygon fill="#008ecb" points="95 62.6666667 97 49.3333333 104.333333 49.3333333"/>
  <polygon fill="#02344b" points="83 49.3333333 73 42.6666667 71 54.6666667"/>
  <polygon fill="#075e84" points="81 36 73 42.6666667 83 49.3333333"/>
  <polygon fill="#6ed0fa" points="106.333333 36 114.333333 42.6666667 104.333333 49.3333333"/>
  <polygon fill="#46c7ff" points="104.333333 49.3333333 114.333333 42.6666667 116.333333 54.6666667"/>
  <polygon fill="#008ecb" points="89.6666667 42 83 49.3333333 81 42"/>
  <polygon fill="#075e84" points="83 49.3333333 89.6666667 42 90.3333333 49.3333333"/>
  <polygon fill="#008ecb" points="89.6666667 42 97.6666667 42 97 49.3333333 90.3333333 49.3333333"/>
  <polygon fill="#17a8e7" points="97.6666667 42 104.333333 49.3333333 97 49.3333333"/>
  <polygon fill="#007aae" points="104.333333 49.3333333 97.6666667 42 106.333333 42"/>
  <polygon fill="#007aae" points="81 20.6666667 89.6666667 42 81 42"/>
  <polygon fill="#075e84" points="89.6666667 42 81 20.6666667 89.6666667 20.6666667"/>
  <path fill="#2bb8f5" d="M89.6666667,42 L89.6666667,20.6666667 L97.6666667,20.6666667 L97.6666667,42 L89.6666667,42 Z M93.6666667,31.3333333 C95.139426,31.3333333 96.3333333,30.139426 96.3333333,28.6666667 C96.3333333,27.1939073 95.139426,26 93.6666667,26 C92.1939073,26 91,27.1939073 91,28.6666667 C91,30.139426 92.1939073,31.3333333 93.6666667,31.3333333 Z"/>
  <polygon fill="#17a8e7" points="97.6666667 42 97.6666667 20.6666667 106.333333 20.6666667"/>
  <polygon fill="#2bb8f5" points="106.333333 20.6666667 106.333333 42 97.6666667 42"/>
  <polygon fill="#008ecb" points="93.6666667 0 89.6666667 20.6666667 81 20.6666667"/>
  <polygon fill="#17a8e7" points="93.6666667 0 97.6666667 20.6666667 89.6666667 20.6666667"/>
  <polygon fill="#46c7ff" points="93.6666667 0 106.333333 20.6666667 97.6666667 20.6666667"/>
</svg>
