<?xml version="1.0" encoding="UTF-8"?>
<svg width="240px" height="260px" viewBox="0 0 240 260" version="1.1" xmlns="http://www.w3.org/2000/svg">
  <polygon fill="#008ac5" points="143.064921 229.500725 171.060474 257.04816 154.922273 251.046557"></polygon>
  <polygon fill="#004868" points="114.534564 215.200291 133.631757 212.321023 154.910228 251.044915"></polygon>
  <polygon fill="#1db0ef" points="171.464234 165.853845 133.631757 212.316999 115.519057 207.927444"></polygon>
  <polygon fill="#008ac5" points="171.474378 165.853845 156.144039 184.681085 188.885112 162.952217"></polygon>
  <polygon fill="#008ac5" points="98.4385402 217.634711 133.631757 212.316999 71.883589 196.54764"></polygon>
  <polygon fill="#008ac5" points="81.7067095 214.858298 98.4499445 217.643327 92.9805032 228.96184"></polygon>
  <polygon fill="#46c7ff" points="96.6926654 190.517679 82.1653596 199.177891 98.3244973 203.325075"></polygon>
  <polygon fill="#004868" points="30.7463449 206.40409 98.4499445 217.638618 40.1692759 171.373357"></polygon>
  <polygon fill="#008ac5" points="51.7085301 128.495391 15.3440004 136.099595 30.7471298 206.40409"></polygon>
  <polygon fill="#004868" points="30.7386758 206.408565 0.352150028 136.112163 15.3441162 136.112163"></polygon>
  <polygon fill="#004a6a" points="108.450905 100.93058 109.989402 114.762752 51.7083943 128.501506 15.3440004 136.099595"></polygon>
  <polygon fill="#46c7ff" points="108.455555 100.929929 15.3440004 136.099595 69.4766425 49.7130774"></polygon>
  <polygon fill="#008ac5" points="42.1736238 76.266095 69.483725 49.7119857 15.3440004 136.099595"></polygon>
  <polygon fill="#0076a9" points="0.365294636 136.112163 43.6405325 73.7271709 15.3451805 136.112163"></polygon>
  <polygon fill="#46c7ff" points="90.6670195 119.306154 109.980118 114.751203 98.0360409 173.469183"></polygon>
  <polygon fill="#004868" points="129.265795 101.038638 135.664128 144.091638 119.31281 108.108277"></polygon>
  <polygon fill="#00557a" points="108.445176 100.919843 158.428182 80.30142 109.980118 114.753991"></polygon>
  <polygon fill="#008ac5" points="99.757741 54.5038886 108.455555 100.929929 69.4766876 49.7119857"></polygon>
  <polygon fill="#004868" points="43.6405325 12.067586 69.4624773 49.7119857 41.4401695 77.3542054"></polygon>
  <polygon fill="#46c7ff" points="35.9392621 3 99.7695236 54.5038886 69.467169 49.7040099"></polygon>
  <path fill="#0076a9" d="M99.7497886,54.5038886 L145.161903,73.646981 L140.539826,87.6809835 L108.445447,100.917783 L99.7497886,54.5038886 Z M132.079618,80.0156473 C133.508322,80.0156473 134.666516,78.8574536 134.666516,77.4287493 C134.666516,76.0000451 133.508322,74.8418514 132.079618,74.8418514 C130.650913,74.8418514 129.49272,76.0000451 129.49272,77.4287493 C129.49272,78.8574536 130.650913,80.0156473 132.079618,80.0156473 Z"/>
  <polygon fill="#46c7ff" points="145.16193 73.6693463 239.301894 47.6125232 140.53721 87.6812091"></polygon>
</svg>
