<?xml version="1.0" encoding="UTF-8"?>
<svg width="156px" height="68px" viewBox="0 0 156 68" version="1.1" xmlns="http://www.w3.org/2000/svg">
  <path fill="#25252a" d="M78.8516445,25.5012987 L78.8516445,25.7714286 L76.0636809,25.7714286 L76.0636809,25.5012987 C76.0636809,25.1411237 75.9349208,24.831603 75.6773968,24.5727273 C75.4198728,24.3138515 75.1119682,24.1844156 74.7536739,24.1844156 L63.0643807,24.1844156 C62.7060864,24.1844156 62.3981818,24.3138515 62.1406578,24.5727273 C61.8831338,24.831603 61.7543737,25.1411237 61.7543737,25.5012987 L61.7543737,28.5064935 C61.7543737,28.8666685 61.8831338,29.1761892 62.1406578,29.4350649 C62.3981818,29.6939407 62.7060864,29.8233766 63.0643807,29.8233766 L74.7536739,29.8233766 C75.895737,29.8233766 76.8642368,30.2229397 77.6592022,31.0220779 C78.4541677,31.8212161 78.8516445,32.7835442 78.8516445,33.9090909 L78.8516445,36.9142857 C78.8516445,38.0398325 78.4541677,39.0021605 77.6592022,39.8012987 C76.8642368,40.6004369 75.895737,41 74.7536739,41 L63.0643807,41 C61.944711,41 60.9874078,40.6004369 60.1924423,39.8012987 C59.3974768,39.0021605 59,38.0398325 59,36.9142857 L59,36.6441558 L61.7543737,36.6441558 L61.7543737,36.9142857 C61.7543737,37.2744607 61.8831338,37.5839814 62.1406578,37.8428571 C62.3981818,38.1017329 62.7060864,38.2311688 63.0643807,38.2311688 L74.7536739,38.2311688 C75.1119682,38.2311688 75.4198728,38.1017329 75.6773968,37.8428571 C75.9349208,37.5839814 76.0636809,37.2744607 76.0636809,36.9142857 L76.0636809,33.9090909 C76.0636809,33.5489159 75.9349208,33.2393952 75.6773968,32.9805195 C75.4198728,32.7216437 75.1119682,32.5922078 74.7536739,32.5922078 L63.0643807,32.5922078 C61.944711,32.5922078 60.9874078,32.1926447 60.1924423,31.3935065 C59.3974768,30.5943683 59,29.6320403 59,28.5064935 L59,25.5012987 C59,24.3757519 59.3974768,23.4134239 60.1924423,22.6142857 C60.9874078,21.8151475 61.944711,21.4155844 63.0643807,21.4155844 L74.7536739,21.4155844 C75.895737,21.4155844 76.8642368,21.8151475 77.6592022,22.6142857 C78.4541677,23.4134239 78.8516445,24.3757519 78.8516445,25.5012987 Z M112.575927,21.4155844 L115.56543,21.4155844 L108.209237,41 L105.824353,41 L98.5689293,24.825974 L91.6829951,41 L89.2645206,41 L81.6060182,21.4155844 L84.5619314,21.4155844 L90.4737579,36.0025974 L96.7550735,21.4155844 L100.382785,21.4155844 L107.06718,35.9688312 L112.575927,21.4155844 Z M118.151854,41 L118.151854,21.4155844 L120.906228,21.4155844 L120.906228,41 L118.151854,41 Z M118.151854,15 L120.906228,15 L120.906228,17.7688312 L118.151854,17.7688312 L118.151854,15 Z M150.935619,21.4155844 C152.077682,21.4155844 153.040584,21.8151475 153.824353,22.6142857 C154.608121,23.4134239 155,24.3757519 155,25.5012987 L155,41 L152.279216,41 L152.279216,25.5012987 C152.279216,25.1411237 152.144858,24.831603 151.876137,24.5727273 C151.607416,24.3138515 151.293914,24.1844156 150.935619,24.1844156 L142.840448,24.1844156 C142.482154,24.1844156 142.174249,24.3138515 141.916725,24.5727273 C141.659201,24.831603 141.530441,25.1411237 141.530441,25.5012987 L141.530441,41 L138.742477,41 L138.742477,25.5012987 C138.742477,25.1411237 138.613717,24.831603 138.356193,24.5727273 C138.098669,24.3138515 137.790765,24.1844156 137.43247,24.1844156 L129.303709,24.1844156 C128.945415,24.1844156 128.63751,24.3138515 128.379986,24.5727273 C128.122462,24.831603 127.993702,25.1411237 127.993702,25.5012987 L127.993702,41 L125.205738,41 L125.205738,21.4155844 L150.935619,21.4155844 Z"/>
  <polygon fill="#67676b" points="38.262415 60.577147 45.7497674 67.9446512 41.4336392 66.3395349"/>
  <polygon fill="#353539" points="30.6320304 56.7525259 35.7395349 55.9824716 41.4304178 66.3390957"/>
  <polygon fill="#8a8a8e" points="45.8577521 43.5549215 35.7395349 55.9813953 30.895331 54.807418"/>
  <polygon fill="#67676b" points="45.8604651 43.5549215 41.760398 48.5902277 50.5169298 42.7788873"/>
  <polygon fill="#67676b" points="26.3271825 57.4036063 35.7395349 55.9813953 19.2251161 51.7639132"/>
  <polygon fill="#66666b" points="21.8522892 56.6610604 26.3302326 57.4059108 24.8674419 60.4330233"/>
  <polygon fill="#a6a6aa" points="25.8602519 50.1512126 21.9749543 52.4673682 26.296682 53.5765239"/>
  <polygon fill="#353539" points="8.22304588 54.4 26.3302326 57.4046512 10.7431892 45.0311035"/>
  <polygon fill="#67676b" points="13.8293387 33.5634807 4.10372093 35.5972093 8.22325581 54.4"/>
  <polygon fill="#35353a" points="8.22099482 54.4011969 0.0941817913 35.6005706 4.10375191 35.6005706"/>
  <polygon fill="#37373b" points="29.0049687 26.1913296 29.4164365 29.8907151 13.8293023 33.5651163 4.10372093 35.5972093"/>
  <polygon fill="#a6a6aa" points="29.0062121 26.1911555 4.10372093 35.5972093 18.5813833 12.4933152"/>
  <polygon fill="#67676b" points="11.2792478 19.5948645 18.5832775 12.4930233 4.10372093 35.5972093"/>
  <polygon fill="#58585d" points="0.0976972893 35.6005706 11.6715695 18.9158345 4.10403655 35.6005706"/>
  <polygon fill="#a6a6aa" points="24.2487055 31.1058385 29.4139535 29.8876265 26.2195349 45.5916279"/>
  <polygon fill="#353539" points="34.5718675 26.2202296 36.2830885 37.7346648 31.9099624 28.1109897"/>
  <polygon fill="#3f3f43" points="29.0034364 26.1884581 42.3712871 20.6741037 29.4139535 29.8883721"/>
  <polygon fill="#67676b" points="26.68 13.7746077 29.0062121 26.1911555 18.5813953 12.4930233"/>
  <polygon fill="#353539" points="11.6715695 2.42510699 18.5775948 12.4930233 11.083087 19.8858773"/>
  <polygon fill="#a6a6aa" points="9.61188076 0 26.6831512 13.7746077 18.5788496 12.4908901"/>
  <path fill="#58585d" d="M26.6778731,13.7746077 L38.8232486,18.8943879 L37.5870837,22.6477526 L29.0035088,26.187907 L26.6778731,13.7746077 Z M35.3244186,20.5976744 C35.7065226,20.5976744 36.0162791,20.2879179 36.0162791,19.905814 C36.0162791,19.52371 35.7065226,19.2139535 35.3244186,19.2139535 C34.9423146,19.2139535 34.6325581,19.52371 34.6325581,19.905814 C34.6325581,20.2879179 34.9423146,20.5976744 35.3244186,20.5976744 Z"/>
  <polygon fill="#a6a6aa" points="38.8232558 18.9003694 64.0007929 11.9315264 37.5863839 22.647813"/>
</svg>
