<?xml version="1.0" encoding="UTF-8"?>
<svg width="24px" height="24px" viewBox="0 0 24 24" version="1.1" xmlns="http://www.w3.org/2000/svg">
  <polyline fill="#767676" points="2.90384615 21.3692308 1 0 21.9307692 0 20.0269231 21.3576923 11.4480769 23.7346154"/>
  <polyline fill="#ffffff" fill-opacity="0.1" points="11.4653846 21.9173077 11.4653846 1.75384615 20.0211538 1.75384615 18.3884615 19.9846154"/>
  <path fill="#ebebeb" d="M4.88846154,4.36730769 L11.4653846,4.36730769 L11.4653846,6.98653846 L7.76153846,6.98653846 L8.00384615,9.66923077 L11.4653846,9.66923077 L11.4653846,12.2826923 L5.60384615,12.2826923 M5.71923077,13.5980769 L8.35,13.5980769 L8.53461538,15.6923077 L11.4653846,16.4769231 L11.4653846,19.2115385 L6.08846154,17.7115385"/>
  <path fill="#ffffff" d="M18.0192308,4.36730769 L11.4538462,4.36730769 L11.4538462,6.98653846 L17.7769231,6.98653846 M17.5403846,9.66923077 L11.4538462,9.66923077 L11.4538462,12.2884615 L14.6846154,12.2884615 L14.3788462,15.6923077 L11.4538462,16.4769231 L11.4538462,19.2 L16.8192308,17.7115385"/>
</svg>
