<?xml version="1.0" encoding="UTF-8"?>
<svg width="24px" height="32px" viewBox="0 0 24 32" version="1.1" xmlns="http://www.w3.org/2000/svg">
  <path fill="#767676" d="M11.8403524,5.92923279 C10.3503436,6.96918033 8.66156828,8.14793443 7.75675771,10.0980459 C6.18512775,13.500118 10.9727577,17.2112787 11.1773392,17.3676066 C11.2249163,17.4040131 11.2817974,17.422059 11.3385727,17.422059 C11.398837,17.422059 11.459207,17.4016 11.5082643,17.3608918 C11.6033128,17.2819934 11.6302731,17.1480131 11.5731806,17.0388984 C11.5558414,17.0057443 9.83735683,13.6932721 9.90121586,11.3167738 C9.92384141,10.4891803 11.0910661,9.55026885 12.3268018,8.55617049 C13.4586079,7.6456918 14.7414978,6.61371803 15.4921586,5.40653115 C17.1400176,2.74927213 15.308511,0.136393443 15.2897974,0.11037377 C15.2170573,0.00902295082 15.0827841,-0.0278032787 14.9679648,0.022242623 C14.8532511,0.0723934426 14.7897093,0.195567213 14.8159295,0.317167213 C14.81963,0.33437377 15.1758238,2.06226885 14.1847401,3.84241311 C13.7763172,4.57799344 12.8792247,5.20424918 11.8403524,5.92923279 Z M18.1178855,7.1010623 C18.222978,7.02247869 18.2538502,6.87916066 18.1902026,6.7648 C18.1265551,6.65043934 17.9879471,6.59997377 17.8648811,6.64634754 C17.6117709,6.74182295 11.6664317,9.01592131 11.6664317,11.7638295 C11.6664317,13.6579148 12.4817974,14.658623 13.0771454,15.389377 C13.310696,15.6759082 13.5123172,15.9234098 13.5787137,16.1347148 C13.7657445,16.743659 13.3226432,17.8442492 13.1363524,18.216918 C13.0826432,18.3241443 13.1089692,18.4539279 13.2003172,18.5321967 C13.2496916,18.5744787 13.3113304,18.595882 13.3730749,18.595882 C13.4256211,18.595882 13.4783789,18.5803541 13.5239471,18.5488787 C13.626185,18.4782689 16.0222731,16.7971672 15.5924934,14.7717246 C15.4324229,14.001941 15.0511718,13.4393705 14.7147489,12.9430033 C14.1936211,12.174059 13.8172335,11.618518 14.3882643,10.5925246 C15.0575154,9.39603934 18.0873304,7.12382951 18.1178855,7.1010623 Z M2.64211454,18.6396328 C2.54019383,18.9423213 2.58829956,19.2429115 2.78114537,19.5086689 C3.42565639,20.3964852 5.70851101,20.8855082 9.20955066,20.8855082 C9.20976211,20.8855082 9.20986784,20.8855082 9.20997357,20.8855082 C9.68437004,20.8855082 10.1851982,20.8762754 10.698185,20.8580197 C16.2956828,20.6590951 18.3718414,18.928682 18.4574802,18.8551344 C18.550837,18.774977 18.5757885,18.6414164 18.5177445,18.5333508 C18.4597004,18.4253902 18.3345198,18.3711475 18.2149427,18.403777 C16.2436652,18.9379148 12.562467,19.1275016 10.009163,19.1275016 C7.15210573,19.1275016 5.69709251,18.9233311 5.34089868,18.7725639 C5.52370044,18.5234885 6.65106608,18.078741 8.04803524,17.806059 C8.18156828,17.7800393 8.27333921,17.6577049 8.26012335,17.5233049 C8.24690749,17.3889049 8.13314537,17.2864 7.99707489,17.2864 C7.17811454,17.2865049 3.07136564,17.3517639 2.64211454,18.6396328 Z M21.3724758,16.8574951 C20.2179383,16.8574951 19.1231366,17.4316066 19.0770396,17.4560525 C18.9702555,17.5128131 18.9161233,17.6343082 18.9454097,17.750977 C18.9748018,17.867541 19.0804229,17.949482 19.2015859,17.9495869 C19.2261145,17.9496918 21.6642819,17.9694164 21.8851454,19.3518164 C22.0807401,20.5444197 19.578185,22.4768 18.5973568,23.1207869 C18.4914185,23.1903475 18.4502907,23.3248525 18.4994537,23.4409967 C18.5412159,23.5399344 18.6383789,23.6018361 18.7430485,23.6018361 C18.7613392,23.6018361 18.7798414,23.5999475 18.7982379,23.5959607 C19.0310485,23.5466492 24.4921586,22.3524721 23.9147841,19.1970623 C23.5625022,17.263318 22.3377621,16.8574951 21.3724758,16.8574951 Z M17.6273128,22.7346885 C17.6463436,22.6335475 17.6039471,22.5307279 17.5191542,22.4717639 L16.2097269,21.5616 C16.1458678,21.5172197 16.0651982,21.5032656 15.9902379,21.5229902 C15.9765991,21.5265574 14.6072247,21.8836984 12.6191366,22.1027672 C11.8300969,22.1905836 10.946326,22.2369574 10.0631894,22.2369574 C8.07562996,22.2369574 6.77603524,22.0051934 6.58678414,21.8352262 C6.56172687,21.7874885 6.56965639,21.7657705 6.57409692,21.7537049 C6.60845815,21.6587541 6.79274009,21.5459672 6.91157709,21.501377 C7.04278414,21.4532197 7.11351542,21.3117902 7.07270485,21.1789639 C7.032,21.0461377 6.89402643,20.9678689 6.75785022,21.0003934 C5.44429956,21.3149377 4.80200881,21.754859 4.84874009,22.307777 C4.93173568,23.2880262 7.21998238,23.7912131 9.15446696,23.9243541 C9.43263436,23.9432393 9.73353304,23.9528918 10.0484934,23.9528918 C10.0487048,23.9528918 10.0488106,23.9528918 10.049022,23.9528918 C13.2657621,23.9528918 17.389533,22.9513443 17.4307665,22.9411672 C17.5314185,22.9165115 17.6081762,22.8358295 17.6273128,22.7346885 Z M7.75517181,24.8388197 C7.85434361,24.7747148 7.89832599,24.6531148 7.86311894,24.5410623 C7.82801762,24.4290098 7.72239648,24.3554623 7.60377093,24.3569311 C7.42773568,24.3615475 5.88126872,24.4307934 5.77300441,25.4078951 C5.74022907,25.699882 5.82449339,25.9665836 6.02357709,26.2006557 C6.57885463,26.8536656 8.07763877,27.2417574 10.6049339,27.3872787 C10.9039295,27.4050098 11.2075771,27.4139279 11.5077357,27.4139279 C14.7207753,27.4139279 16.8846872,26.4156328 16.9752952,26.373141 C17.0631542,26.3319082 17.1210925,26.2462951 17.1262731,26.1499803 C17.1314537,26.0537705 17.0830308,25.9623869 17.000141,25.9121311 L15.345304,24.9096393 C15.2878943,24.8749115 15.2191718,24.8633705 15.1536211,24.8766951 C15.1431542,24.8788984 14.0924405,25.0951344 12.5067489,25.3088525 C12.206696,25.3492459 11.8309427,25.3698098 11.3900617,25.3698098 C9.80606167,25.3698098 8.04422907,25.1129705 7.70632599,24.9448918 C7.70146256,24.9133115 7.70770044,24.8734426 7.75517181,24.8388197 Z M10.010326,30.428118 C17.3699736,30.4219279 21.3200352,29.1231475 22.0809515,28.3058361 C22.3503436,28.016577 22.3794185,27.7428459 22.3564758,27.5640656 C22.2999119,27.1240393 21.896141,26.8547148 21.8502555,26.8254426 C21.7397709,26.7549377 21.5915419,26.7734033 21.5053744,26.8720262 C21.4194185,26.9707541 21.4174097,27.1148066 21.5036828,27.2133246 C21.5500969,27.2726033 21.5769515,27.3717508 21.4411982,27.5065705 C21.137022,27.7884852 18.0688282,28.6443016 12.9603172,28.9013508 C12.260511,28.9375475 11.5265551,28.9558033 10.7788546,28.9559082 C6.20489868,28.9559082 2.85748018,28.3342689 2.4180793,27.971882 C2.58755947,27.7304656 3.77148899,27.344577 5.03069604,27.1264525 C5.1725815,27.1019016 5.26847577,26.9691803 5.24648458,26.8279607 C5.22449339,26.686741 5.09328634,26.589482 4.9499207,26.6080525 C4.91439648,26.6127738 4.79397357,26.620118 4.65430837,26.6285115 C2.5766696,26.7544131 0.175718062,27.0350689 0.0504317181,28.097259 C0.0123700441,28.4210361 0.109321586,28.7148066 0.338643172,28.9705967 C0.899735683,29.596223 2.51259912,30.4280131 10.0100088,30.4280131 C10.0102203,30.428118 10.0102203,30.428118 10.010326,30.428118 Z M23.5265551,28.5361311 C23.4225198,28.4883934 23.2996652,28.5125246 23.2219559,28.5956197 C23.2110661,28.6071607 22.1046344,29.7553836 18.7777269,30.4295869 C17.5040352,30.682859 15.1132335,30.8112787 11.6717181,30.8112787 C8.2237533,30.8112787 4.94294273,30.6766689 4.9101674,30.6753049 C4.77314537,30.6686951 4.65589427,30.7675279 4.63728634,30.9014033 C4.61857269,31.0352787 4.70548018,31.1612852 4.83785022,31.1925508 C4.872,31.2006295 8.31034361,32 13.0115947,32 C15.2664317,32 17.4605815,31.818177 19.5332511,31.4595672 C23.3978855,30.7872525 23.6684405,28.8856131 23.6780617,28.8050361 C23.691489,28.6923541 23.6303789,28.5838689 23.5265551,28.5361311 Z"/>
</svg>
