<?xml version="1.0" encoding="UTF-8"?>
<svg width="24px" height="24px" viewBox="0 0 24 24" version="1.1" xmlns="http://www.w3.org/2000/svg">
  <path fill="#767676" d="M0,0 L24,0 L24,24 L0,24 L0,0 Z M6.31047619,20.0561429 L6.31047619,20.0559524 C6.84209524,21.183619 7.88938095,22.1180476 9.69361905,22.1180476 C11.691381,22.1180476 13.0606667,21.0547619 13.0606667,18.7187619 L13.0606667,11.0182857 L10.8052857,11.0182857 L10.8052857,18.6868571 C10.8052857,19.8144857 10.3380476,20.104381 9.59695238,20.104381 C8.82380952,20.104381 8.50147619,19.5728571 8.14714286,18.944619 L6.31047619,20.0561429 Z M14.2857143,19.8144762 C14.9461429,21.1194762 16.2994286,22.1182381 18.3937619,22.1182381 C20.536381,22.1182381 22.1312857,21.0067143 22.1312857,18.9767143 C22.1312857,17.0919048 21.0518571,16.2542381 19.1347143,15.4325714 L18.5709048,15.1909524 C17.604381,14.7720476 17.1854762,14.4981429 17.1854762,13.8214762 C17.1854762,13.2738095 17.604381,12.8549524 18.2649048,12.8549524 C18.9092857,12.8549524 19.3280476,13.1288095 19.7147143,13.8214762 L21.4707619,12.6938095 C20.7297619,11.3888571 19.6987143,10.889381 18.2649048,10.889381 C16.2510476,10.889381 14.9622381,12.1782857 14.9622381,13.8698571 C14.9622381,15.7064286 16.0416667,16.576381 17.6689048,17.269 L18.232619,17.5108095 C19.2637143,17.9617619 19.8758571,18.2356667 19.8758571,19.0089524 C19.8758571,19.6533905 19.2799524,20.120619 18.3454286,20.120619 C17.2338571,20.120619 16.6055714,19.5406667 16.1221429,18.7511905 L14.2857143,19.8144762 Z"/>
</svg>
