<?xml version="1.0" encoding="UTF-8"?>
<svg width="24px" height="24px" viewBox="0 0 24 24" version="1.1" xmlns="http://www.w3.org/2000/svg">
  <path fill="#767676" d="M22.2235247,0 C23.2025111,0 24,0.780035462 24,1.74182187 L24,22.4224953 C24,23.3851208 23.2025111,24.166331 22.2235247,24.166331 L1.7714754,24.166331 C0.794155637,24.166331 0,23.3851208 0,22.4224953 L0,1.74182187 C0,0.780035462 0.794155637,0 1.7714754,0 L22.2235247,0 Z M3.55828391,20.5929026 L7.1180678,20.5929026 L7.1180678,9.06002463 L3.55828391,9.06002463 L3.55828391,20.5929026 Z M5.33892585,7.48350717 C6.47691004,7.48350717 7.40173053,6.55192868 7.40173053,5.40469924 C7.40173053,4.25830891 6.47691004,3.32706606 5.33892585,3.32706606 C4.1979417,3.32706606 3.27445452,4.25830891 3.27445452,5.40469924 C3.27445452,6.55192868 4.1979417,7.48350717 5.33892585,7.48350717 Z M20.450716,20.5929026 L20.450716,14.266862 C20.450716,11.1616563 19.7852252,8.77304945 16.1806086,8.77304945 C14.4487993,8.77304945 13.2876488,9.72912992 12.8126554,10.635703 L12.7653227,10.635703 L12.7653227,9.06002463 L9.3505368,9.06002463 L9.3505368,20.5929026 L12.9076541,20.5929026 L12.9076541,14.8876347 C12.9076541,13.3832806 13.1913168,11.9262522 15.0437911,11.9262522 C16.869099,11.9262522 16.893432,13.646425 16.893432,14.9844678 L16.893432,20.5929026 L20.450716,20.5929026 Z"/>
</svg>
