<?xml version="1.0" encoding="UTF-8"?>
<svg width="24px" height="24px" viewBox="0 0 24 24" version="1.1" xmlns="http://www.w3.org/2000/svg">
  <path fill="#767676" d="M12,24 C5.372583,24 1.0658141e-14,18.627417 1.0658141e-14,12 C1.0658141e-14,5.372583 5.372583,0 12,0 C18.627417,0 24,5.372583 24,12 C24,18.627417 18.627417,24 12,24 Z M4.00027412,12.0084655 C3.98833047,12.6832817 4.36754133,13.3043515 4.9706956,13.6059286 C4.95875195,13.7820974 4.95875195,13.9582663 4.9706956,14.1344351 C4.9706956,16.8277279 8.10590348,19.0134157 11.9726599,19.0134157 C15.8394162,19.0134157 18.9746241,16.824742 18.9746241,14.1344351 C18.9865678,13.9582663 18.9865678,13.7820974 18.9746241,13.6059286 C19.1507929,13.5282949 19.3090463,13.4178161 19.4463983,13.2894219 C20.1540595,12.6265494 20.1869045,11.51579 19.524032,10.8111147 C18.8611595,10.1034535 17.7504001,10.0706085 17.0457248,10.733481 C15.6602615,9.79590456 14.0329393,9.28232765 12.3608285,9.25545444 L11.4740125,5.08712092 L11.4740125,5.08114909 C11.4292238,4.87810706 11.2291677,4.75269875 11.0291116,4.79748743 L8.08500209,5.38571215 C7.89688962,5.0572618 7.55649562,4.83630429 7.17728476,4.79748743 C6.51739815,4.72582554 5.92618753,5.2035715 5.85452563,5.86345811 C5.78286374,6.52334472 6.2606097,7.11455535 6.92049631,7.18621724 C7.58038292,7.25787913 8.17159355,6.78013317 8.24325544,6.12024656 L10.8141259,5.57979644 L11.593449,9.32711633 C9.94223952,9.36294728 8.33581872,9.87353828 6.96827091,10.8051429 C6.65773603,10.5095376 6.24866605,10.3333688 5.81869468,10.3184392 C4.8482732,10.2855942 4.03610506,11.04103 4.00027412,12.0084655 Z M16.0125992,13.2117882 C16.0125992,13.8746607 15.4751349,14.409139 14.8092765,14.4151108 C14.146404,14.4151108 13.6059539,13.8746607 13.6059539,13.2117882 C13.6059539,12.5489157 14.146404,12.0084655 14.8092765,12.0084655 C15.472149,12.0084655 16.0125992,12.5489157 16.0125992,13.2117882 Z M9.03452219,16.5142072 L9.03452219,16.5619817 C8.90314205,16.4335875 8.90015614,16.2186018 9.02855037,16.0872217 C9.1569446,15.9558416 9.37193028,15.9528556 9.50331042,16.0812499 C10.2348589,16.6037845 11.118689,16.860573 12.0144626,16.8127984 C12.9102363,16.8546011 13.7910804,16.585869 14.5136712,16.0573626 C14.6360936,15.9588275 14.8062906,15.9588275 14.9257271,16.0573626 C15.0630791,16.1708272 15.0839804,16.3768552 14.9705158,16.5142072 C14.1165449,17.1561783 13.0714756,17.4846286 12.002519,17.43984 C10.9335624,17.4846286 9.8884931,17.1561783 9.03452219,16.5142072 Z M9.24950788,14.4569136 L9.25846561,14.5017023 L9.19874737,14.5017023 C8.53587484,14.4748291 8.01931202,13.9164635 8.04618523,13.253591 C8.04618523,12.5907184 8.58663535,12.0502683 9.24950788,12.0502683 C9.9123804,12.0502683 10.4528305,12.5907184 10.4528305,13.253591 C10.4528305,13.9164635 9.9123804,14.4569136 9.24950788,14.4569136 Z"/>
</svg>
