<?xml version="1.0" encoding="UTF-8"?>
<svg width="24px" height="24px" viewBox="0 0 24 24" version="1.1" xmlns="http://www.w3.org/2000/svg">
  <polygon fill="#bcbcbc" points="18.848 21.646214 18.848 15.3530791 20.927 15.3530791 20.927 23.7348837 2.162 23.7348837 2.162 15.3530791 4.241 15.3530791 4.241 21.646214"/>
  <path fill="#767676" d="M6.536,14.7563163 L16.742,16.8992372 L17.174,14.837693 L6.968,12.6947721 L6.536,14.7563163 L6.536,14.7563163 Z M7.886,9.87371163 L17.336,14.2951814 L18.2,12.3963907 L8.75,7.94779535 L7.886,9.87371163 Z M10.505,5.20811163 L18.524,11.9081302 L19.847,10.3077209 L11.828,3.60770233 L10.505,5.20811163 L10.505,5.20811163 Z M15.689,0.244130233 L14.015,1.49190698 L20.225,9.90083721 L21.899,8.65306047 L15.689,0.244130233 Z M6.32,19.5304186 L16.742,19.5304186 L16.742,17.4417488 L6.32,17.4417488 L6.32,19.5304186 Z"/>
</svg>
