<?xml version="1.0" encoding="UTF-8"?>
<svg width="24px" height="24px" viewBox="0 0 24 24" version="1.1" xmlns="http://www.w3.org/2000/svg">
  <path fill="#767676" d="M7.54752,21.5014103 C16.60416,21.5014103 21.55776,13.9980503 21.55776,7.49117027 C21.55776,7.27805027 21.55776,7.06589027 21.54336,6.85469027 C22.5070381,6.15764469 23.3389013,5.29457449 24,4.30589027 C23.1013239,4.70409997 22.1479961,4.96524577 21.17184,5.08061027 C22.1997542,4.46523304 22.9690786,3.49735138 23.33664,2.35709027 C22.3700712,2.93064737 21.3126203,3.33486181 20.20992,3.55229027 C18.6835995,1.92930878 16.2582906,1.53207835 14.2939673,2.583343 C12.329644,3.63460765 11.314824,5.87292297 11.81856,8.04317027 C7.85941991,7.84468983 4.17069675,5.97468061 1.6704,2.89853027 C0.363477846,5.14842921 1.03102837,8.02671537 3.19488,9.47165027 C2.41127155,9.44842552 1.6447482,9.23703892 0.96,8.85533027 C0.96,8.87549027 0.96,8.89661027 0.96,8.91773027 C0.960641408,11.2616595 2.61288143,13.280484 4.9104,13.7446103 C4.18547481,13.9423127 3.42487736,13.9712128 2.68704,13.8290903 C3.33211001,15.8349362 5.18071158,17.2090428 7.28736,17.2486103 C5.54374564,18.6189449 3.38981713,19.3628449 1.17216,19.3606103 C0.780387426,19.3598582 0.388995903,19.3361375 0,19.2895703 C2.25181051,20.7346358 4.87191687,21.5011385 7.54752,21.4975703"/>
</svg>
